<?xml version="1.0" encoding="utf-8"?>
<svg id="master-artboard" viewBox="0 0 600 600" version="1.1" xmlns="http://www.w3.org/2000/svg" x="0px" y="0px" width="600px" height="600px" style="enable-background:new 0 0 1400 980;"><rect id="ee-background" x="0" y="0" width="600" height="600" style="fill: white; fill-opacity: 0; pointer-events: none;"/>


<g transform="matrix(0.9945855140686036, 0, 0, 0.9945855140686036, -6.155681427454397, -161.77203970579953)">
		
		
		
		
		
		
		
		
		
		
		
		
		
		
		
		
		
		
		
		
	<g transform="matrix(4.936471939086914, 0, 0, 4.936471939086914, -4583.111140408709, -3729.5090896274596)">
			<path id="XMLID_65_" class="st0" d="M1027.3,855.1c-3.3,0-5.1,0-6.9-1.4c-0.8-0.7-1.1-1.6-1.5-3.9c-0.4-2.4-1-5.5-3.2-8.7&#10;&#9;&#9;&#9;&#9;c-6-8.5-17.5-9-26.3-4.7L962,809c-0.3-2.4-1.3-4.6-3-6.3l-10.8-10.8c-4.2-4.2-11-4.2-15.2,0c-4.2,4.2-4.2,11,0,15.2l10.8,10.8&#10;&#9;&#9;&#9;&#9;c1.7,1.7,3.9,2.8,6.3,3.1l27.4,27.4c-4.3,8.8-3.8,20.3,4.7,26.3c3.2,2.3,6.3,2.8,8.7,3.2c2.3,0.4,3.2,0.6,3.9,1.5&#10;&#9;&#9;&#9;&#9;c1.4,1.8,1.5,3.6,1.4,6.9c-0.1,4.4-0.2,9.8,5,15.8c4.5,5.2,10.9,8.2,18.1,8.5c0.4,0,0.7,0,1.1,0c8.1,0,16-3.3,21.9-9.2&#10;&#9;&#9;&#9;&#9;c6.2-6.2,9.5-14.5,9.2-23c-0.3-7.2-3.3-13.6-8.5-18.1h0C1037.1,855,1031.6,855.1,1027.3,855.1z M949.4,808.3l-2.5,2.5l-8.9-8.9&#10;&#9;&#9;&#9;&#9;c-1.4-1.4-1.4-3.6,0-4.9c0.7-0.7,1.6-1,2.5-1c0.9,0,1.8,0.3,2.5,1l8.9,8.9L949.4,808.3z M981.3,841.9l-21.3-21.3h0l-6.3-6.3&#10;&#9;&#9;&#9;&#9;l1.7-1.7l53.8,53.8c-0.3,0.2-0.6,0.5-0.9,0.8c-0.3,0.3-0.5,0.6-0.8,0.9L981.3,841.9L981.3,841.9z M1044.2,878.5&#10;&#9;&#9;&#9;&#9;c0.2,6.3-2.4,12.9-7.1,17.6c-4.7,4.7-11.2,7.3-17.6,7.1c-5.2-0.2-9.7-2.3-12.9-5.9c-3.3-3.9-3.3-7.1-3.2-10.9&#10;&#9;&#9;&#9;&#9;c0.1-3.6,0.1-7.7-3-11.6c-2.5-3-5.7-3.6-8.3-4c-2-0.3-3.9-0.7-5.8-2c-4.6-3.2-5.2-9.3-3.3-14.8l25,25c0.3,2.3,1.3,4.4,3,6&#10;&#9;&#9;&#9;&#9;c2,2,4.6,3.1,7.5,3.1c2.8,0,5.5-1.1,7.5-3.1c4.1-4.1,4.1-10.8,0-14.9c-1.7-1.7-3.8-2.7-6-3l-25-25c5.5-1.9,11.6-1.3,14.8,3.3&#10;&#9;&#9;&#9;&#9;c1.3,1.9,1.7,3.8,2,5.8c0.5,2.6,1,5.8,4,8.3c3.9,3.2,8,3.1,11.6,3c3.8-0.1,7.1-0.1,10.9,3.2h0&#10;&#9;&#9;&#9;&#9;C1041.9,868.7,1044,873.3,1044.2,878.5z M1011.5,877.8l0.6-2.8c0.1-0.6,0.3-1.1,0.7-1.6c0.2-0.3,0.5-0.6,0.8-0.9&#10;&#9;&#9;&#9;&#9;c0.3-0.3,0.6-0.6,0.9-0.8c0.5-0.3,1-0.5,1.6-0.6l2.8-0.6c1.6,0.1,3.2,0.8,4.5,2c2.7,2.7,2.7,7.1,0,9.9c-1.3,1.3-3.1,2-4.9,2&#10;&#9;&#9;&#9;&#9;c-1.9,0-3.6-0.7-4.9-2C1012.3,881,1011.6,879.5,1011.5,877.8z" style="fill: rgb(255, 255, 255);"/>
			<path id="XMLID_57_" class="st0" d="M1034.8,876.6l-17.1,17.1l2.5,2.5l17.1-17.1L1034.8,876.6z M1020.1,893.7l14.7-14.7l0.1,0.1&#10;&#9;&#9;&#9;&#9;L1020.1,893.7L1020.1,893.7z" style="fill: rgb(255, 255, 255);"/>
		</g></g></svg>