<?xml version="1.0" encoding="utf-8"?>
<svg id="master-artboard" viewBox="0 0 400 800" version="1.1" xmlns="http://www.w3.org/2000/svg" x="0px" y="0px" width="400px" height="800px" style="enable-background:new 0 0 1400 980;"><rect id="ee-background" x="0" y="0" width="400" height="800" style="fill: white; fill-opacity: 0; pointer-events: none;"/>


<g transform="matrix(0.9945855140686036, 0, 0, 0.9945855140686036, -41.31990814208979, -274.2976914402149)">
		
		
		
		
		
		
		
		
		
		
		
		
		
		
		
		
		
		
		
		
	<path id="XMLID_80_" class="st0" d="M667.9,902.2c0,6.3,5.2,11.5,11.5,11.5H717c6.3,0,11.5-5.2,11.5-11.5&#10;&#9;&#9;&#9;c0-6.3-5.2-11.5-11.5-11.5h-11.1c0.3-1.1,0.4-2.2,0.4-3.5v-12.6c2.5-1.8,4.1-4.6,4.1-7.7v-5.3c8.7-3.4,14.4-10.7,14.4-18.8v-36.6&#10;&#9;&#9;&#9;c0-11.5-11.3-20.8-25.2-20.8h-2.9c-13.9,0-25.2,9.3-25.2,20.8v36.6c0,8.1,5.7,15.4,14.4,18.8v5.3c0,3.1,1.6,5.8,4.1,7.7v12.6&#10;&#9;&#9;&#9;c0,1.2,0.1,2.4,0.4,3.5h-11.1C673,890.7,667.9,895.8,667.9,902.2z M678.8,806.3c0-4.8,3.4-9.1,8.4-11.5c0,6.3,0,12.7,0,19&#10;&#9;&#9;&#9;c0,3,4.7,3,4.7,0c0-6.9,0-13.7,0-20.6c1.3-0.3,2.6-0.4,4-0.5c0,5.9,0,11.9,0,17.8c0,3,4.7,3,4.7,0c0-5.9,0-11.9,0-17.8&#10;&#9;&#9;&#9;c1.4,0.1,2.7,0.2,4,0.5c0,6.9,0,13.7,0,20.6c0,3,4.7,3,4.7,0c0-6.3,0-12.7,0-19c5.1,2.4,8.4,6.6,8.4,11.5v16.6&#10;&#9;&#9;&#9;c-4.3-4.1-10.8-6.8-17.9-6.8h-2.9c-7.2,0-13.6,2.6-17.9,6.8V806.3z M685.9,853.2v0.5c-4.4-2.5-7.1-6.5-7.1-10.8v-13.5&#10;&#9;&#9;&#9;c3-5.4,9.9-9.2,17.9-9.2h2.9c8,0,14.9,3.8,17.9,9.2v13.5c0,4.3-2.7,8.3-7.1,10.8v-0.5c0-5.6-5.3-10.1-11.7-10.1h-1.1&#10;&#9;&#9;&#9;C691.2,843.2,685.9,847.7,685.9,853.2z M698.7,869.8h-1.1c-0.3,0-0.5,0-0.8-0.1c-0.1,0-0.2,0-0.3,0c-0.1,0-0.3-0.1-0.4-0.1&#10;&#9;&#9;&#9;c-0.3-0.1-0.7-0.2-1-0.3l-0.2-0.1c-1.1-0.6-1.8-1.4-1.8-2.2v-3.1v-10.7c0-1.3,1.8-2.8,4.5-2.8h1.1c2.6,0,4.5,1.5,4.5,2.8v10.7v3.1&#10;&#9;&#9;&#9;c0,0.8-0.7,1.7-1.8,2.2l-0.2,0.1c-0.3,0.1-0.6,0.2-1,0.3c-0.1,0-0.2,0.1-0.4,0.1c-0.1,0-0.2,0-0.3,0&#10;&#9;&#9;&#9;C699.3,869.8,699,869.8,698.7,869.8z M699.1,877v10.2c0,1.8-0.6,3-0.9,3.4c-0.3-0.4-0.9-1.6-0.9-3.4V877c0.1,0,0.2,0,0.3,0h1.1&#10;&#9;&#9;&#9;C698.8,877,699,877,699.1,877z M697.9,897.9h0.6H717c2.3,0,4.2,1.9,4.2,4.2c0,2.3-1.9,4.2-4.2,4.2h-37.7c-2.3,0-4.2-1.9-4.2-4.2&#10;&#9;&#9;&#9;c0-2.3,1.9-4.2,4.2-4.2H697.9z" style="fill: rgb(255, 255, 255);" transform="matrix(6.143983840942384, 0, 0, 6.143983840942384, -4044.9637502865544, -4540.957931850403)"/></g></svg>