<?xml version="1.0" encoding="utf-8"?>
<svg id="master-artboard" viewBox="0 0 1400 980" version="1.1" xmlns="http://www.w3.org/2000/svg" x="0px" y="0px" width="1400px" height="980px" style="enable-background:new 0 0 1400 980;"><rect id="ee-background" x="0" y="0" width="1400" height="980" style="fill: white; fill-opacity: 0; pointer-events: none;"/>


<g transform="matrix(0.9945855140686036, 0, 0, 0.9945855140686036, -6.155681427454397, -161.77203970579953)">
		
		
		
		<g transform="matrix(8.398027420043945, 0, 0, 8.398027420043945, -237.4422958705871, -3361.5866514785894)">
			<path id="XMLID_137_" class="st0" d="M85.4,523v-87.2c0-6.2-5-11.2-11.2-11.2c-6.2,0-11.2,5-11.2,11.2V523&#10;&#9;&#9;&#9;&#9;c0,6.2,5,11.2,11.2,11.2C80.4,534.2,85.4,529.2,85.4,523z M70.4,523v-87.2c0-2.2,1.8-3.9,3.9-3.9c2.2,0,3.9,1.8,3.9,3.9V523&#10;&#9;&#9;&#9;&#9;c0,2.2-1.8,3.9-3.9,3.9C72.1,527,70.4,525.2,70.4,523z" style="fill: rgb(255, 255, 255); fill-opacity: 1;"/>
			<path id="XMLID_138_" class="st0" d="M111.4,523v-87.2c0-6.2-5-11.2-11.2-11.2c-6.2,0-11.2,5-11.2,11.2V523&#10;&#9;&#9;&#9;&#9;c0,6.2,5,11.2,11.2,11.2C106.4,534.2,111.4,529.2,111.4,523z M96.3,523v-87.2c0-2.2,1.8-3.9,3.9-3.9c2.2,0,3.9,1.8,3.9,3.9V523&#10;&#9;&#9;&#9;&#9;c0,2.2-1.8,3.9-3.9,3.9C98.1,527,96.3,525.2,96.3,523z" style="fill: rgb(255, 255, 255); fill-opacity: 1;"/>
			<path id="XMLID_139_" class="st0" d="M137.4,523v-87.2c0-6.2-5-11.2-11.2-11.2c-6.2,0-11.2,5-11.2,11.2V523&#10;&#9;&#9;&#9;&#9;c0,6.2,5,11.2,11.2,11.2C132.4,534.2,137.4,529.2,137.4,523z M122.3,523v-87.2c0-2.2,1.8-3.9,3.9-3.9c2.2,0,3.9,1.8,3.9,3.9V523&#10;&#9;&#9;&#9;&#9;c0,2.2-1.8,3.9-3.9,3.9C124,527,122.3,525.2,122.3,523z" style="fill: rgb(255, 255, 255); fill-opacity: 1;"/>
			<path id="XMLID_140_" class="st0" d="M163.3,523v-87.2c0-6.2-5-11.2-11.2-11.2c-6.2,0-11.2,5-11.2,11.2V523&#10;&#9;&#9;&#9;&#9;c0,6.2,5,11.2,11.2,11.2C158.3,534.2,163.3,529.2,163.3,523z M148.3,523v-87.2c0-2.2,1.8-3.9,3.9-3.9c2.2,0,3.9,1.8,3.9,3.9V523&#10;&#9;&#9;&#9;&#9;c0,2.2-1.8,3.9-3.9,3.9C150,527,148.3,525.2,148.3,523z" style="fill: rgb(255, 255, 255); fill-opacity: 1;"/>
			<path id="XMLID_125_" class="st0" d="M77.6,497.6v-5.2c0-1.9-1.5-3.4-3.4-3.4c-1.9,0-3.4,1.5-3.4,3.4v5.2c0,1.9,1.5,3.4,3.4,3.4&#10;&#9;&#9;&#9;&#9;C76.1,500.9,77.6,499.4,77.6,497.6z" style="fill: rgb(255, 255, 255); fill-opacity: 1;"/>
			<path id="XMLID_124_" class="st0" d="M103.6,478.5v-5.2c0-1.9-1.5-3.4-3.4-3.4c-1.9,0-3.4,1.5-3.4,3.4v5.2c0,1.9,1.5,3.4,3.4,3.4&#10;&#9;&#9;&#9;&#9;C102.1,481.8,103.6,480.3,103.6,478.5z" style="fill: rgb(255, 255, 255); fill-opacity: 1;"/>
			<path id="XMLID_123_" class="st0" d="M129.6,466.6v-5.2c0-1.9-1.5-3.4-3.4-3.4c-1.9,0-3.4,1.5-3.4,3.4v5.2c0,1.9,1.5,3.4,3.4,3.4&#10;&#9;&#9;&#9;&#9;C128.1,469.9,129.6,468.4,129.6,466.6z" style="fill: rgb(255, 255, 255); fill-opacity: 1;"/>
			<path id="XMLID_122_" class="st0" d="M155.5,484.4v-5.2c0-1.9-1.5-3.4-3.4-3.4c-1.9,0-3.4,1.5-3.4,3.4v5.2c0,1.9,1.5,3.4,3.4,3.4&#10;&#9;&#9;&#9;&#9;C154,487.8,155.5,486.3,155.5,484.4z" style="fill: rgb(255, 255, 255); fill-opacity: 1;"/>
		</g>
		
		
		
		
		
		
		
		
		
		
		
		
		
		
		
		
	</g></svg>